<svg xmlns="http://www.w3.org/2000/svg" viewBox="0 0 512 512">
	<path d="M251.9,430.3h-6v41.2h6c6.8,0,12-1.8,15.5-5.3s5.4-8.7,5.4-15.4-1.8-11.8-5.3-15.3S258.7,430.3,251.9,430.3Z"/>
	<path d="M181.6,429.8h-9.2v18.9h9.2a10.76,10.76,0,0,0,7.5-2.5,9.43,9.43,0,0,0,2.6-7c0-3-.8-5.4-2.6-7S184.8,429.7,181.6,429.8Z"/>
	<path d="M453.7,114.4c0-8.4-1.6-15.5-7.4-20.4-.9-.8-4.7-3.8-4.7-3.8l-94.5-82C338.3.2,324.2,0,323.9,0H74.2A15.94,15.94,0,0,0,58.3,15.9V496.1A15.88,15.88,0,0,0,74.2,512H437.9a15.94,15.94,0,0,0,15.9-15.9ZM360.6,78.7C370.7,88,385.2,92,395.7,92.8L378,91.5s-12.8-.2-21.1-7.6-8.6-18.6-8.6-18.6l-2.5-18.6S350.4,69.3,360.6,78.7ZM327.3,16.4s10.4.9,10.4,12.5c0,14.6-.1,37-.1,37-.1,1.8-.2,17.3,9.9,27.8,6,6.2,14.1,9.4,24.1,9.4h56.1c6.5,0,9.5,4.5,9.5,10.3v21.2c0,18.93,0,50.89,0,88.16a520.29,520.29,0,0,0-60.14-4.16,611.69,611.69,0,0,0-64.2,2.6l-1.1.1c-23.4-21.9-101.6-96.9-132.3-147.8a533.56,533.56,0,0,0,2.71-57L289.5,16.4Zm110,227.42c0,18.22,0,37.28,0,56.41C402.92,285,364.57,264.15,331.5,240.3,337.14,240.2,382.23,235.72,437.25,243.82ZM174.3,112.3c5.5,7.2,51.6,66.1,111.1,111.5,0-.1-49.8,3.8-82.2,11.8-33,8.1-77,24.8-77,24.8C128.8,254.9,154,196,174.3,112.3ZM157.7,40.2c-4.4-7.4-8.8-14.9-13.1-22.5l-.69-1.23h15.73C159.11,24.23,158.46,32.1,157.7,40.2ZM76.6,16.5l36.72,0q3.76,7.25,7.78,14.42,14.7,26.25,31.1,49.6C144.5,135.1,116,239,100.7,271.7l-.9.4q-12.88,5.71-25.1,11.76V18.4A1.9,1.9,0,0,1,76.6,16.5ZM87.5,297.1c-2.42,4.2-7.74,13-12.8,21.37V303.15C78.95,301.06,83.22,299,87.5,297.1ZM74.7,365.37q6-9.29,11.8-19a598.69,598.69,0,0,0,29.9-56.9l1-2.2c19.4-9,113.3-39,186.4-44.6l2.2,1.6c36.3,26.7,73.1,47.2,107.3,60.7q12.25,4.88,24,8.42c0,23.78,0,47.38,0,69.28H74.7ZM202.2,455.6q-6.6,5.7-18.9,5.7h-11v23.4H155.7V417.1h27.6q12.3,0,18.9,5.7c4.4,3.8,6.6,9.2,6.6,16.3S206.6,451.7,202.2,455.6Zm85.6,9a28.14,28.14,0,0,1-6.7,10.6,29,29,0,0,1-12.4,7.4c-4.8,1.5-12,2.2-21.7,2.2H229.5V417.2H247c9.7,0,17,.7,21.8,2.2a27.71,27.71,0,0,1,12.3,7.4,29,29,0,0,1,6.7,10.5,37.86,37.86,0,0,1,2.2,13.5A42.49,42.49,0,0,1,287.8,464.6Zm68.5-34.4H328.1v12.6h26.5V456H328.1v28.7H311.5V417.1h44.8Z"/>
</svg>