<svg xmlns="http://www.w3.org/2000/svg" width="247.236" height="26.297"><path d="M17.894 25.945h-5.168L5.168 9.158v16.787H0V.351h5.168l7.575 16.805V.356h5.15ZM40.06 15.451q0 5.15-2.435 8a8.416 8.416 0 0 1-6.758 2.846 8.512 8.512 0 0 1-6.768-2.822q-2.461-2.821-2.5-7.9v-4.377q0-5.273 2.443-8.235A8.313 8.313 0 0 1 30.827.001a8.352 8.352 0 0 1 6.732 2.909q2.461 2.909 2.5 8.165Zm-5.186-4.289a10.51 10.51 0 0 0-.984-5.15 3.294 3.294 0 0 0-3.059-1.687 3.306 3.306 0 0 0-3.04 1.62 9.987 9.987 0 0 0-1.02 4.948v4.553a9.517 9.517 0 0 0 1 4.948 3.4 3.4 0 0 0 3.094 1.591 3.312 3.312 0 0 0 3.008-1.551 9.334 9.334 0 0 0 1-4.825ZM50.519.351l4.834 18.51L60.169.351h6.75v25.594h-5.185v-6.926l.475-10.67-5.116 17.596h-3.515l-5.115-17.6.475 10.67v6.93h-5.169V.351Zm29.25 16.7h-8.6v-4.148h8.6Zm4.374 8.894V.351h6.768a9.315 9.315 0 0 1 7.146 2.848 11.158 11.158 0 0 1 2.716 7.8v4.148q0 5.045-2.663 7.919a9.512 9.512 0 0 1-7.337 2.879Zm5.168-21.287v17h1.547a4.336 4.336 0 0 0 3.639-1.362q1.055-1.362 1.107-4.7v-4.451q0-3.586-1-5a4.044 4.044 0 0 0-3.41-1.485ZM121.127.351V18.07a8.278 8.278 0 0 1-2.2 6.108 8.5 8.5 0 0 1-6.199 2.119 8.572 8.572 0 0 1-6.285-2.145 8.341 8.341 0 0 1-2.17-6.207V.345h5.2v17.62a5.274 5.274 0 0 0 .7 3.111 3.014 3.014 0 0 0 2.549.932 2.976 2.976 0 0 0 2.531-.923 5.256 5.256 0 0 0 .7-3.032V.353Zm12.621 16.7h-8.6v-4.148h8.6Zm15.195 2.179a3.207 3.207 0 0 0-.8-2.364 9.209 9.209 0 0 0-2.909-1.661 13.556 13.556 0 0 1-5.537-3.419 6.871 6.871 0 0 1-1.687-4.632 6.493 6.493 0 0 1 2.294-5.194A8.655 8.655 0 0 1 146.131 0a8.725 8.725 0 0 1 4.2.993 6.89 6.89 0 0 1 2.839 2.8 8.411 8.411 0 0 1 .993 4.113h-5.15a4.244 4.244 0 0 0-.765-2.733 2.679 2.679 0 0 0-2.206-.94 2.762 2.762 0 0 0-2.109.8 3.007 3.007 0 0 0-.756 2.153 2.652 2.652 0 0 0 .844 1.907 9.7 9.7 0 0 0 2.988 1.767 12.8 12.8 0 0 1 5.44 3.322 7.4 7.4 0 0 1 1.7 5.01 6.606 6.606 0 0 1-2.127 5.221 8.42 8.42 0 0 1-5.79 1.884 9.959 9.959 0 0 1-4.518-1.02 7.647 7.647 0 0 1-3.19-2.918 8.476 8.476 0 0 1-1.151-4.482h5.186a4.89 4.89 0 0 0 .861 3.217 3.526 3.526 0 0 0 2.813 1q2.71.001 2.71-2.864Zm14.023 6.715h-5.168V.351h5.168Zm20.408-21.287h-6.331v21.287h-5.186V4.658h-6.214V.351h17.736Zm16.189 10.213h-8.05v6.785h9.53v4.289h-14.7V.351h14.66v4.307h-9.49v6.047h8.051Zm4.922 9.369a2.036 2.036 0 0 1 .5-1.406 1.909 1.909 0 0 1 1.5-.562 1.966 1.966 0 0 1 1.521.563 2 2 0 0 1 .519 1.406 1.887 1.887 0 0 1-.519 1.354 2 2 0 0 1-1.521.545 1.943 1.943 0 0 1-1.5-.545 1.924 1.924 0 0 1-.499-1.355Zm21.568-9.6h-8.648v11.305h-3.217V.351h13.325v2.76h-10.107v8.771h8.648Zm13.166.949h-4.5v10.356h-3.234V.351h7.172a7.659 7.659 0 0 1 5.7 1.96 7.842 7.842 0 0 1 1.934 5.739 7.974 7.974 0 0 1-1.046 4.14 6.609 6.609 0 0 1-2.962 2.663l4.953 10.881v.211h-3.463Zm-4.5-2.76h3.9a4.18 4.18 0 0 0 3.226-1.3 4.935 4.935 0 0 0 1.2-3.487q0-4.931-4.465-4.931h-3.867Z" fill="#fff"/></svg>