<svg id="nom-du-site.fr" xmlns="http://www.w3.org/2000/svg" width="247.236" height="26.297" viewBox="0 0 247.236 26.297">
  <path id="Path_1199" d="M19.951,0H14.783L7.225-16.787V0H2.057V-25.594H7.225L14.8-8.789v-16.8h5.15ZM42.117-10.494q0,5.15-2.435,8A8.416,8.416,0,0,1,32.924.352,8.512,8.512,0,0,1,26.156-2.47q-2.461-2.821-2.5-7.9v-4.377q0-5.273,2.443-8.235a8.313,8.313,0,0,1,6.785-2.962,8.352,8.352,0,0,1,6.732,2.909q2.461,2.909,2.5,8.165Zm-5.186-4.289a10.51,10.51,0,0,0-.984-5.15,3.294,3.294,0,0,0-3.059-1.687A3.306,3.306,0,0,0,29.848-20a9.987,9.987,0,0,0-1.02,4.948v4.553a9.517,9.517,0,0,0,1,4.948,3.4,3.4,0,0,0,3.094,1.591A3.312,3.312,0,0,0,35.93-5.511a9.334,9.334,0,0,0,1-4.825ZM52.576-25.594,57.41-7.084l4.816-18.51h6.75V0H63.791V-6.926l.475-10.67L59.15,0H55.635L50.52-17.6l.475,10.67V0H45.826V-25.594Zm29.25,16.7h-8.6v-4.148h8.6ZM86.2,0V-25.594h6.768a9.315,9.315,0,0,1,7.146,2.848,11.158,11.158,0,0,1,2.716,7.8v4.148q0,5.045-2.663,7.919A9.512,9.512,0,0,1,92.83,0Zm5.168-21.287v17h1.547a4.336,4.336,0,0,0,3.639-1.362q1.055-1.362,1.107-4.7V-14.8q0-3.586-1-5a4.044,4.044,0,0,0-3.41-1.485Zm31.816-4.307V-7.875a8.278,8.278,0,0,1-2.2,6.108A8.5,8.5,0,0,1,114.785.352,8.572,8.572,0,0,1,108.5-1.793,8.341,8.341,0,0,1,106.33-8v-17.6h5.2V-7.98a5.274,5.274,0,0,0,.7,3.111,3.014,3.014,0,0,0,2.549.932,2.976,2.976,0,0,0,2.531-.923,5.256,5.256,0,0,0,.7-3.032v-17.7Zm12.621,16.7h-8.6v-4.148h8.6ZM151-6.715a3.207,3.207,0,0,0-.8-2.364,9.209,9.209,0,0,0-2.909-1.661,13.556,13.556,0,0,1-5.537-3.419,6.871,6.871,0,0,1-1.687-4.632,6.493,6.493,0,0,1,2.294-5.194,8.655,8.655,0,0,1,5.827-1.96,8.725,8.725,0,0,1,4.2.993,6.89,6.89,0,0,1,2.839,2.8,8.411,8.411,0,0,1,.993,4.113h-5.15a4.244,4.244,0,0,0-.765-2.733,2.679,2.679,0,0,0-2.206-.94,2.762,2.762,0,0,0-2.109.8,3.007,3.007,0,0,0-.756,2.153,2.652,2.652,0,0,0,.844,1.907,9.7,9.7,0,0,0,2.988,1.767,12.8,12.8,0,0,1,5.44,3.322,7.4,7.4,0,0,1,1.7,5.01,6.606,6.606,0,0,1-2.127,5.221A8.42,8.42,0,0,1,148.289.352a9.959,9.959,0,0,1-4.518-1.02,7.647,7.647,0,0,1-3.19-2.918,8.476,8.476,0,0,1-1.151-4.482h5.186a4.89,4.89,0,0,0,.861,3.217,3.526,3.526,0,0,0,2.813,1Q151-3.85,151-6.715ZM165.023,0h-5.168V-25.594h5.168Zm20.408-21.287H179.1V0h-5.186V-21.287H167.7v-4.307h17.736Zm16.189,10.213H193.57v6.785H203.1V0H188.4V-25.594h14.66v4.307H193.57v6.047h8.051Zm4.922,9.369a2.036,2.036,0,0,1,.5-1.406,1.909,1.909,0,0,1,1.5-.562,1.966,1.966,0,0,1,1.521.563,2,2,0,0,1,.519,1.406,1.887,1.887,0,0,1-.519,1.354,2,2,0,0,1-1.521.545,1.943,1.943,0,0,1-1.5-.545A1.924,1.924,0,0,1,206.543-1.705Zm21.568-9.6h-8.648V0h-3.217V-25.594H229.57v2.76H219.463v8.771h8.648Zm13.166.949h-4.5V0h-3.234V-25.594h7.172a7.659,7.659,0,0,1,5.7,1.96,7.842,7.842,0,0,1,1.934,5.739,7.974,7.974,0,0,1-1.046,4.14,6.609,6.609,0,0,1-2.962,2.663L249.293-.211V0H245.83Zm-4.5-2.76h3.9a4.18,4.18,0,0,0,3.226-1.3,4.935,4.935,0,0,0,1.2-3.487q0-4.931-4.465-4.931h-3.867Z" transform="translate(-2.057 25.945)" fill="#fff"/>
</svg>
