<svg xmlns="http://www.w3.org/2000/svg" viewBox="0 0 512 512"><path d="M251.9 430.3h-6v41.2h6c6.8 0 12-1.8 15.5-5.3s5.4-8.7 5.4-15.4-1.8-11.8-5.3-15.3-8.8-5.2-15.6-5.2Zm-70.3-.5h-9.2v18.9h9.2a10.76 10.76 0 0 0 7.5-2.5 9.43 9.43 0 0 0 2.6-7c0-3-.8-5.4-2.6-7s-4.3-2.5-7.5-2.4Z"/><path d="M453.7 114.4c0-8.4-1.6-15.5-7.4-20.4-.9-.8-4.7-3.8-4.7-3.8l-94.5-82C338.3.2 324.2 0 323.9 0H74.2a15.94 15.94 0 0 0-15.9 15.9v480.2A15.88 15.88 0 0 0 74.2 512h363.7a15.94 15.94 0 0 0 15.9-15.9Zm-93.1-35.7c10.1 9.3 24.6 13.3 35.1 14.1L378 91.5s-12.8-.2-21.1-7.6-8.6-18.6-8.6-18.6l-2.5-18.6s4.6 22.6 14.8 32Zm-33.3-62.3s10.4.9 10.4 12.5c0 14.6-.1 37-.1 37-.1 1.8-.2 17.3 9.9 27.8 6 6.2 14.1 9.4 24.1 9.4h56.1c6.5 0 9.5 4.5 9.5 10.3v109.36a520.29 520.29 0 0 0-60.14-4.16 611.69 611.69 0 0 0-64.2 2.6l-1.1.1c-23.4-21.9-101.6-96.9-132.3-147.8a533.56 533.56 0 0 0 2.71-57l107.33-.1Zm110 227.42v56.41c-34.38-15.23-72.73-36.08-105.8-59.93 5.64-.1 50.73-4.58 105.75 3.52Zm-263-131.52c5.5 7.2 51.6 66.1 111.1 111.5 0-.1-49.8 3.8-82.2 11.8-33 8.1-77 24.8-77 24.8 2.6-5.5 27.8-64.4 48.1-148.1Zm-16.6-72.1c-4.4-7.4-8.8-14.9-13.1-22.5l-.69-1.23h15.73c-.53 7.76-1.18 15.63-1.94 23.73ZM76.6 16.5h36.72q3.76 7.25 7.78 14.42 14.7 26.25 31.1 49.6C144.5 135.1 116 239 100.7 271.7l-.9.4q-12.88 5.71-25.1 11.76V18.4a1.9 1.9 0 0 1 1.9-1.9Zm10.9 280.6c-2.42 4.2-7.74 13-12.8 21.37v-15.32c4.25-2.09 8.52-4.15 12.8-6.05Zm-12.8 68.27q6-9.29 11.8-19a598.69 598.69 0 0 0 29.9-56.9l1-2.2c19.4-9 113.3-39 186.4-44.6l2.2 1.6c36.3 26.7 73.1 47.2 107.3 60.7q12.25 4.88 24 8.42v69.28H74.7Zm127.5 90.23q-6.6 5.7-18.9 5.7h-11v23.4h-16.6v-67.6h27.6q12.3 0 18.9 5.7c4.4 3.8 6.6 9.2 6.6 16.3s-2.2 12.6-6.6 16.5Zm85.6 9a28.14 28.14 0 0 1-6.7 10.6 29 29 0 0 1-12.4 7.4c-4.8 1.5-12 2.2-21.7 2.2h-17.5v-67.6H247c9.7 0 17 .7 21.8 2.2a27.71 27.71 0 0 1 12.3 7.4 29 29 0 0 1 6.7 10.5 37.86 37.86 0 0 1 2.2 13.5 42.49 42.49 0 0 1-2.2 13.8Zm68.5-34.4h-28.2v12.6h26.5V456h-26.5v28.7h-16.6v-67.6h44.8Z"/></svg>